<?xml version="1.0" standalone="no"?>
<!DOCTYPE svg PUBLIC "-//W3C//DTD SVG 1.1//EN" "http://www.w3.org/Graphics/SVG/1.1/DTD/svg11.dtd" >
<svg xmlns="http://www.w3.org/2000/svg">
<metadata></metadata>
<defs>
<font id="agencyfbbold" horiz-adv-x="835" >
<font-face units-per-em="2048" ascent="1638" descent="-410" />
<missing-glyph horiz-adv-x="421" />
<glyph unicode="&#xfb01;" horiz-adv-x="923" d="M27 815v195h104v430q0 125 127 125h451q127 0 127 -125v-285h-228v211h-250v-356h478v-1010h-228v815h-250v-815h-227v815h-104z" />
<glyph unicode="&#xfb02;" horiz-adv-x="923" d="M27 815v195h104v430q0 125 127 125h578v-1565h-228v1366h-250v-356h146v-195h-146v-815h-227v815h-104z" />
<glyph horiz-adv-x="2048" />
<glyph horiz-adv-x="2048" />
<glyph unicode="&#xd;" horiz-adv-x="2048" />
<glyph unicode=" "  horiz-adv-x="421" />
<glyph unicode="&#x09;" horiz-adv-x="421" />
<glyph unicode="&#xa0;" horiz-adv-x="421" />
<glyph unicode="!" horiz-adv-x="438" d="M94 1565h250l-33 -1200h-184zM102 0v240h232v-240h-232z" />
<glyph unicode="&#x22;" horiz-adv-x="706" d="M74 1565h229l-45 -490h-139zM403 1565h228l-43 -490h-142z" />
<glyph unicode="#" horiz-adv-x="1110" d="M47 391v191h186l64 397h-178v190h209l63 396h207l-63 -396h165l64 396h209l-66 -396h158v-190h-188l-64 -397h180v-191h-211l-63 -391h-207l63 391h-165l-62 -391h-209l64 391h-156zM440 582h166l64 397h-166z" />
<glyph unicode="$" horiz-adv-x="935" d="M90 158v358h234v-313h282v305l-465 440q-29 26 -40 53.5t-11 73.5v332q0 69 35 106t98 37h131v140h219v-140h132q64 0 99.5 -36.5t35.5 -104.5v-338h-234v287h-282v-275l462 -436q30 -28 42 -56t12 -71v-362q0 -69 -36 -106.5t-99 -37.5h-132v-139h-219v139h-131 q-62 0 -97.5 37t-35.5 107z" />
<glyph unicode="%" horiz-adv-x="1343" d="M76 907v537q0 63 29.5 92t91.5 29h270q62 0 91.5 -29t29.5 -92v-537q0 -121 -121 -121h-270q-121 0 -121 121zM154 0v14l852 1551h182v-15l-852 -1550h-182zM242 932h178v487h-178v-487zM756 121v536q0 121 121 121h272q121 0 121 -127v-530q0 -121 -121 -121h-272 q-121 0 -121 121zM924 145h176v488h-176v-488z" />
<glyph unicode="&#x26;" horiz-adv-x="999" d="M90 141v477q0 47 12 70.5t50 54.5l106 74l-104 72q-36 27 -48 50.5t-12 70.5v413q0 69 36.5 105.5t105.5 36.5h475q69 0 105 -36.5t36 -105.5v-325h-229v270h-297v-379l106 -74h522v-200h-110v-715h-613q-69 0 -105 36t-36 105zM319 197h297v518h-190l-107 -76v-442z" />
<glyph unicode="'" horiz-adv-x="376" d="M74 1565h229l-45 -490h-139z" />
<glyph unicode="(" horiz-adv-x="622" d="M84 682q0 269 66 477.5t190 405.5h231v-11q-120 -207 -178.5 -410.5t-58.5 -461.5t58.5 -461.5t178.5 -410.5v-11h-231q-124 197 -190 405.5t-66 477.5z" />
<glyph unicode=")" horiz-adv-x="622" d="M53 -190q120 208 179 411.5t59 460.5t-59 460.5t-179 411.5v11h232q124 -197 190 -405.5t66 -477.5t-66 -477.5t-190 -405.5h-232v11z" />
<glyph unicode="*" horiz-adv-x="937" d="M78 1085l241 105l-241 106l106 174l205 -147l-22 258h202l-18 -258l203 147l108 -174l-241 -106l241 -105l-108 -174l-203 150l18 -260h-202l22 260l-205 -150z" />
<glyph unicode="+" horiz-adv-x="970" d="M74 588v194h305v299h213v-299h305v-194h-305v-299h-213v299h-305z" />
<glyph unicode="," horiz-adv-x="376" d="M55 -162l29 402h240l-117 -402h-152z" />
<glyph unicode="-" horiz-adv-x="630" d="M76 498v209h477v-209h-477z" />
<glyph unicode="." horiz-adv-x="376" d="M76 0v242h225v-242h-225z" />
<glyph unicode="/" horiz-adv-x="909" d="M39 0v14l618 1551h213v-15l-618 -1550h-213z" />
<glyph unicode="0" horiz-adv-x="956" d="M94 143v1278q0 69 36.5 106.5t105.5 37.5h485q68 0 104.5 -37.5t36.5 -106.5v-1278q0 -69 -36.5 -106t-104.5 -37h-488q-67 0 -103 37t-36 106zM324 201h309v1163h-309v-1163z" />
<glyph unicode="1" horiz-adv-x="481" d="M57 1104v31l121 430h199v-1565h-230v1104h-90z" />
<glyph unicode="2" horiz-adv-x="903" d="M68 0v145l530 932v289h-285v-291h-229v348q0 68 37 105t106 37h459q68 0 105.5 -37.5t37.5 -104.5v-303q0 -52 -11 -84.5t-40 -79.5l-430 -751h479v-205h-759z" />
<glyph unicode="3" horiz-adv-x="942" d="M94 143v361h230v-303h301v393l-287 197v49l287 194v330h-301v-285h-230v342q0 69 37 106.5t105 37.5h477q68 0 104.5 -37.5t36.5 -106.5v-368q0 -54 -18.5 -87.5t-59.5 -56.5l-145 -94l147 -92q41 -23 58.5 -55t17.5 -86v-439q0 -69 -36 -106t-105 -37h-480 q-67 0 -103 37t-36 106z" />
<glyph unicode="4" horiz-adv-x="931" d="M35 295v139l389 1131h238v-9l-365 -1062h252v471h223v-471h119v-199h-119v-295h-223v295h-514z" />
<glyph unicode="5" horiz-adv-x="929" d="M92 143v361h230v-303h290v602h-520l25 762h714v-205h-497l-15 -356h381q69 0 105.5 -37t36.5 -105v-719q0 -69 -36.5 -106t-105.5 -37h-469q-67 0 -103 37t-36 106z" />
<glyph unicode="6" horiz-adv-x="944" d="M94 143v1278q0 69 36 106.5t103 37.5h474q68 0 104.5 -37.5t36.5 -106.5v-331h-230v274h-294v-471h387q69 0 105 -36.5t36 -104.5v-609q0 -69 -36 -106t-105 -37h-475q-69 0 -105.5 37t-36.5 106zM324 201h299v493h-299v-493z" />
<glyph unicode="7" horiz-adv-x="882" d="M59 1135v430h775v-150l-361 -1415h-240l351 1364h-299v-229h-226z" />
<glyph unicode="8" horiz-adv-x="960" d="M92 143v455q0 54 15 84t53 53l129 76l-127 76q-37 24 -52.5 53t-15.5 78v403q0 69 36.5 106.5t105.5 37.5h487q67 0 103 -37.5t36 -106.5v-403q0 -50 -15 -78.5t-52 -52.5l-127 -76l129 -76q40 -23 54.5 -51.5t14.5 -85.5v-455q0 -69 -36.5 -106t-104.5 -37h-494 q-67 0 -103 37t-36 106zM324 197h309v434l-154 88l-155 -88v-434zM328 993l151 -90l152 90v375h-303v-375z" />
<glyph unicode="9" horiz-adv-x="944" d="M90 813v608q0 69 36 106.5t103 37.5h478q69 0 106 -37.5t37 -106.5v-1278q0 -69 -36.5 -106t-104.5 -37h-471q-68 0 -105 37t-37 106v332h230v-274h292v471h-389q-67 0 -103 36.5t-36 104.5zM319 870h299v494h-299v-494z" />
<glyph unicode=":" horiz-adv-x="376" d="M76 0v242h225v-242h-225zM76 635v244h225v-244h-225z" />
<glyph unicode=";" horiz-adv-x="376" d="M47 -162l29 402h239l-116 -402h-152zM76 635v244h225v-244h-225z" />
<glyph unicode="&#x3c;" horiz-adv-x="745" d="M66 616v119l581 414h12v-242l-344 -231l344 -232v-241h-12z" />
<glyph unicode="=" horiz-adv-x="956" d="M80 373v190h797v-190h-797zM80 768v193h797v-193h-797z" />
<glyph unicode="&#x3e;" horiz-adv-x="745" d="M86 203v241l346 232l-346 231v242h14l582 -414v-119l-582 -413h-14z" />
<glyph unicode="?" horiz-adv-x="868" d="M74 1085v336q0 69 37 106.5t106 37.5h436q68 0 106 -37.5t38 -106.5v-323q0 -44 -9 -72t-32 -59l-228 -308v-294h-227v266q0 46 9 75t32 60l225 305v299h-264v-285h-229zM297 0v240h235v-240h-235z" />
<glyph unicode="@" horiz-adv-x="1193" d="M92 90v1385q0 43 23 66.5t67 23.5h830q43 0 66.5 -23.5t23.5 -66.5v-1043q0 -43 -23.5 -66.5t-66.5 -23.5h-557q-43 0 -66.5 23.5t-23.5 64.5v350q0 42 24 66t66 24h204v224h-129v-140h-155v187q0 43 23.5 66.5t64.5 23.5h268q43 0 66.5 -23.5t23.5 -66.5v-692h174v1013 h-796v-1360h903v-102h-920q-44 0 -67 23.5t-23 66.5zM526 473h133v268h-133v-268z" />
<glyph unicode="A" horiz-adv-x="923" d="M37 0v4l303 1563h246l301 -1563v-4h-232l-47 297h-293l-47 -297h-231zM346 498h229l-114 706z" />
<glyph unicode="B" horiz-adv-x="952" d="M94 0v1565h621q67 0 103 -37.5t36 -106.5v-403q0 -55 -17 -85.5t-59 -55.5l-96 -60l102 -63q42 -25 60 -58t18 -88v-465q0 -69 -37 -106t-106 -37h-625zM328 197h299v446l-115 76h-184v-522zM328 909h180l113 80v379h-293v-459z" />
<glyph unicode="C" horiz-adv-x="954" d="M94 143v1278q0 69 36 106.5t103 37.5h488q69 0 106 -37.5t37 -106.5v-366h-233v309h-303v-1163h303v329h233v-387q0 -69 -37 -106t-106 -37h-488q-67 0 -103 37t-36 106z" />
<glyph unicode="D" horiz-adv-x="960" d="M94 0v1565h477q141 0 222 -80.5t81 -216.5v-973q0 -136 -81.5 -215.5t-221.5 -79.5h-477zM328 201h168q69 0 106 35t37 98v899q0 62 -36.5 96.5t-100.5 34.5h-174v-1163z" />
<glyph unicode="E" horiz-adv-x="808" d="M94 0v1565h643v-207h-409v-457h352v-203h-352v-491h415v-207h-649z" />
<glyph unicode="F" horiz-adv-x="772" d="M94 0v1565h639v-207h-405v-463h346v-203h-346v-692h-234z" />
<glyph unicode="G" horiz-adv-x="960" d="M94 143v1278q0 69 36.5 106.5t105.5 37.5h489q69 0 106 -37.5t37 -106.5v-334h-235v277h-305v-1163h305v438h-174v199h409v-695q0 -69 -37 -106t-106 -37h-492q-67 0 -103 37t-36 106z" />
<glyph unicode="H" horiz-adv-x="972" d="M94 0v1565h234v-645h317v645h236v-1565h-236v702h-317v-702h-234z" />
<glyph unicode="I" horiz-adv-x="430" d="M98 0v1565h234v-1565h-234z" />
<glyph unicode="J" horiz-adv-x="888" d="M68 143v385h233v-327h262v1364h234v-1422q0 -69 -37.5 -106t-106.5 -37h-444q-68 0 -104.5 37t-36.5 106z" />
<glyph unicode="K" horiz-adv-x="882" d="M94 0v1565h234v-662l260 662h256v-11l-318 -743l357 -801v-10h-258l-297 698v-698h-234z" />
<glyph unicode="L" horiz-adv-x="753" d="M94 0v1565h234v-1356h381v-209h-615z" />
<glyph unicode="M" horiz-adv-x="1132" d="M94 0v1565h221l246 -865l6 -71q2 57 6 71l246 865h221v-1565h-225v772q0 26 3.5 68.5t7.5 71.5l3 30l-202 -799h-119l-203 799q14 -111 14 -170v-772h-225z" />
<glyph unicode="N" horiz-adv-x="980" d="M94 0v1565h205l375 -965q-15 72 -15 113v852h228v-1565h-205l-375 985q15 -72 15 -113v-872h-228z" />
<glyph unicode="O" horiz-adv-x="976" d="M94 143v1278q0 69 36 106.5t103 37.5h508q68 0 105 -37.5t37 -106.5v-1278q0 -69 -37 -106t-105 -37h-508q-67 0 -103 37t-36 106zM328 201h321v1163h-321v-1163z" />
<glyph unicode="P" horiz-adv-x="921" d="M94 0v1565h613q69 0 106 -37.5t37 -106.5v-708q0 -69 -37 -107.5t-106 -38.5h-379v-567h-234zM328 768h286v596h-286v-596z" />
<glyph unicode="Q" horiz-adv-x="1007" d="M94 143v1278q0 69 36.5 106.5t105.5 37.5h505q69 0 105.5 -37.5t36.5 -106.5v-1132l106 -76v-215h-16l-105 80l-4 -10q-13 -32 -46 -50t-77 -18h-508q-67 0 -103 37t-36 106zM328 201h321v55l-137 104v213h14l123 -92v883h-321v-1163z" />
<glyph unicode="R" horiz-adv-x="944" d="M94 0v1565h621q69 0 105 -37.5t36 -106.5v-569q0 -69 -35.5 -105t-103.5 -38h-80l258 -701v-8h-244l-258 727v141h230v496h-295v-1364h-234z" />
<glyph unicode="S" horiz-adv-x="935" d="M90 143v373h234v-319h286v307l-469 444q-29 26 -40 53t-11 72v348q0 69 36.5 106.5t104.5 37.5h471q68 0 105 -37.5t37 -104.5v-350h-234v295h-286v-283l469 -442q29 -28 40 -55.5t11 -71.5v-373q0 -69 -37 -106t-105 -37h-471q-68 0 -104.5 37t-36.5 106z" />
<glyph unicode="T" horiz-adv-x="798" d="M27 1358v207h747v-207h-258v-1358h-233v1358h-256z" />
<glyph unicode="U" horiz-adv-x="970" d="M94 143v1422h234v-1364h315v1364h234v-1422q0 -69 -37.5 -106t-106.5 -37h-497q-69 0 -105.5 37t-36.5 106z" />
<glyph unicode="V" horiz-adv-x="911" d="M41 1561v4h235l175 -1073l6 -134l6 134l176 1073h233v-4l-299 -1563h-233z" />
<glyph unicode="W" horiz-adv-x="1286" d="M37 1565h237l121 -928q2 -15 3 -35t2 -51t3 -57q8 132 9 143l135 928h192l135 -928q1 -12 9 -143q2 26 3 56.5t2 50.5t3 36l121 928h237l-229 -1567h-229l-140 887q-2 15 -3 34.5t-2 51t-3 57.5q-2 -26 -3 -57.5t-2 -51t-3 -34.5l-139 -887h-230z" />
<glyph unicode="X" horiz-adv-x="901" d="M27 0v8l292 793l-274 755v9h250l156 -510l157 510h248v-9l-274 -749l292 -799v-8h-253l-172 551l-173 -551h-249z" />
<glyph unicode="Y" horiz-adv-x="907" d="M27 1556v9h241l187 -680l186 680h240v-9l-310 -981v-575h-235v575z" />
<glyph unicode="Z" horiz-adv-x="798" d="M39 0v125l438 1229h-403v211h682v-135l-437 -1219h439v-211h-719z" />
<glyph unicode="[" horiz-adv-x="602" d="M94 -111v1541q0 66 35.5 100.5t101.5 34.5h299v-209h-206v-1395h206v-209h-299q-137 0 -137 137z" />
<glyph unicode="\" horiz-adv-x="909" d="M39 1550v15h213l618 -1551v-14h-213z" />
<glyph unicode="]" horiz-adv-x="602" d="M72 -39h209v1395h-209v209h301q65 0 101 -35t36 -100v-1541q0 -67 -35.5 -102t-101.5 -35h-301v209z" />
<glyph unicode="^" horiz-adv-x="854" d="M78 1012v12l250 541h202l246 -541v-12h-184l-166 311l-166 -311h-182z" />
<glyph unicode="_" horiz-adv-x="808" d="M0 -236h811v-174h-811v174z" />
<glyph unicode="`" d="M231 1341v9h285l174 -265v-8h-168z" />
<glyph unicode="a" horiz-adv-x="815" d="M78 119v364q0 64 31.5 94.5t97.5 30.5h309v232h-219v-144h-207v189q0 125 129 125h387q127 0 127 -125v-885h-219v35l-242 -31q-58 -8 -69 -8q-125 0 -125 123zM297 174l219 8v271h-219v-279z" />
<glyph unicode="b" horiz-adv-x="837" d="M82 0v1565h229v-592l246 33q33 8 74 8q125 0 125 -123v-688q0 -93 -56 -148t-153 -55h-465zM311 190h142q73 0 73 76v553l-215 -4v-625z" />
<glyph unicode="c" horiz-adv-x="817" d="M82 125v760q0 125 129 125h397q127 0 127 -125v-240h-223v174h-205v-629h205v193h223v-258q0 -125 -127 -125h-397q-129 0 -129 125z" />
<glyph unicode="d" d="M80 182v625q0 93 56 148t155 55h233v555h228v-1565h-228v35l-174 -31q-45 -10 -86 -10q-86 0 -135 50t-49 138zM307 260q0 -74 72 -74q31 0 43 2l102 9v622h-141q-76 0 -76 -76v-483z" />
<glyph unicode="e" horiz-adv-x="819" d="M82 125v760q0 125 129 125h395q129 0 129 -125v-371l-63 -63h-371v-283h215v168h219v-211q0 -125 -129 -125h-395q-129 0 -129 125zM301 600h215v242h-215v-242z" />
<glyph unicode="f" horiz-adv-x="528" d="M27 815v195h104v430q0 125 127 125h268v-199h-168v-356h146v-195h-146v-815h-227v815h-104z" />
<glyph unicode="g" d="M80 209v618q0 88 49 137.5t135 49.5q32 0 86 -8l174 -33v37h228v-1254q0 -125 -129 -125h-398q-129 0 -129 125v162h221v-121h207v209h-235q-97 0 -153 55t-56 148zM307 266q0 -76 76 -76h141v621l-96 10q-12 2 -47 2q-74 0 -74 -73v-484z" />
<glyph unicode="h" horiz-adv-x="837" d="M82 0v1565h229v-592l246 33q33 8 74 8q125 0 125 -123v-891h-230v819l-215 -4v-815h-229z" />
<glyph unicode="i" horiz-adv-x="401" d="M86 1155v236h229v-236h-229zM88 0v1010h225v-1010h-225z" />
<glyph unicode="j" horiz-adv-x="401" d="M-57 -178h145v1188h225v-1254q0 -64 -30.5 -94.5t-96.5 -30.5h-243v191zM86 1155v236h229v-236h-229z" />
<glyph unicode="k" horiz-adv-x="772" d="M82 0v1565h229v-940l181 385h239v-4l-233 -459l258 -543v-4h-244l-201 463v-463h-229z" />
<glyph unicode="l" horiz-adv-x="401" d="M88 0v1565h225v-1565h-225z" />
<glyph unicode="m" horiz-adv-x="1277" d="M82 0v1010h229v-37l240 33q54 8 80 8q65 0 96 -35l6 -10l264 37q33 8 74 8q125 0 125 -123v-891h-227v819l-215 -4v-815h-228v819l-215 -4v-815h-229z" />
<glyph unicode="n" horiz-adv-x="837" d="M82 0v1010h229v-37l242 33q54 8 78 8q125 0 125 -123v-891h-230v819l-215 -4v-815h-229z" />
<glyph unicode="o" horiz-adv-x="831" d="M82 125v760q0 125 129 125h410q127 0 127 -125v-760q0 -125 -127 -125h-410q-129 0 -129 125zM307 190h217v629h-217v-629z" />
<glyph unicode="p" d="M82 -369v1379h229v-37l246 33q33 8 74 8q125 0 125 -123v-688q0 -93 -56 -148t-155 -55h-234v-369h-229zM311 190h142q39 0 56 18.5t17 57.5v553l-215 -4v-625z" />
<glyph unicode="q" d="M80 203v624q0 88 49 137.5t135 49.5q47 0 86 -8l174 -33v37h228v-1379h-228v369h-235q-97 0 -153 55t-56 148zM307 266q0 -76 74 -76h143v621l-104 10q-10 2 -41 2q-72 0 -72 -73v-484z" />
<glyph unicode="r" horiz-adv-x="765" d="M82 0v1010h229v-37l209 33q33 8 74 8q125 0 125 -123v-303h-227v231l-181 -4v-815h-229z" />
<glyph unicode="s" horiz-adv-x="794" d="M78 125v217h219v-170h201v160l-351 207q-37 19 -53 44t-16 66v236q0 125 129 125h381q127 0 127 -125v-203h-217v156h-201v-146l350 -205q36 -18 53 -44t17 -68v-250q0 -125 -127 -125h-385q-127 0 -127 125z" />
<glyph unicode="t" horiz-adv-x="563" d="M29 815v195h108v274h228v-274h147v-195h-147v-620h153v-195h-254q-127 0 -127 125v690h-108z" />
<glyph unicode="u" horiz-adv-x="837" d="M82 119v891h227v-820l217 5v815h228v-1010h-228v35l-241 -33q-54 -8 -78 -8q-125 0 -125 125z" />
<glyph unicode="v" horiz-adv-x="796" d="M31 1010h235l133 -664l133 664h234l-258 -1012h-219z" />
<glyph unicode="w" horiz-adv-x="1112" d="M31 1010h219l110 -645l109 645h174l109 -645l110 645h219l-217 -1012h-200l-109 559l-109 -559h-198z" />
<glyph unicode="x" horiz-adv-x="778" d="M20 0v4l244 516l-221 486v4h236l110 -293l115 293h231v-4l-221 -484l244 -518v-4h-248l-121 317l-125 -317h-244z" />
<glyph unicode="y" horiz-adv-x="796" d="M31 1010h235l133 -664l133 664h234l-350 -1379h-234l105 377z" />
<glyph unicode="z" horiz-adv-x="710" d="M45 0v135l336 688h-309v187h581v-136l-338 -688h338v-186h-608z" />
<glyph unicode="{" horiz-adv-x="759" d="M53 672v37l197 192v416q0 118 61 183t178 65h199v-207h-127q-38 0 -59 -21t-21 -59v-354q0 -56 -11.5 -81.5t-51.5 -62.5l-109 -90l109 -92q40 -36 51.5 -60.5t11.5 -80.5v-414q0 -40 22 -62t62 -22h123v-207h-199q-117 0 -178 65t-61 183v479z" />
<glyph unicode="|" horiz-adv-x="430" d="M102 -360v1925h226v-1925h-226z" />
<glyph unicode="}" horiz-adv-x="759" d="M72 -41h123q40 0 63 22t23 62v414q0 57 10.5 81.5t50.5 59.5l109 92l-109 90q-40 37 -50.5 62t-10.5 82v354q0 38 -22 59t-60 21h-127v207h198q116 0 178 -65t62 -183v-416l197 -192v-37l-197 -193v-479q0 -118 -62 -183t-178 -65h-198v207z" />
<glyph unicode="~" horiz-adv-x="1036" d="M129 428v250q0 55 31 88t86 33q52 0 129 -31l332 -133v158h200v-248q0 -57 -31 -90t-85 -33q-55 0 -132 31l-331 133v-158h-199z" />
<glyph unicode="&#xa1;" horiz-adv-x="438" d="M94 0l33 1200h184l33 -1200h-250zM102 1325v240h232v-240h-232z" />
<glyph unicode="&#xa2;" horiz-adv-x="817" d="M82 412v747q0 125 129 125h100v281h197v-281h100q127 0 127 -125v-239h-223v176h-205v-621h205v195h223v-258q0 -125 -127 -125h-100v-287h-197v287h-100q-129 0 -129 125z" />
<glyph unicode="&#xa3;" horiz-adv-x="942" d="M49 0v201h105v454h-105v197h105v569q0 69 37 106.5t106 37.5h428q68 0 104.5 -36.5t36.5 -105.5v-340h-229v283h-254v-514h279v-197h-279v-454h494v-201h-828z" />
<glyph unicode="&#xa4;" horiz-adv-x="968" d="M10 596v147h105v103h-105v145h105v430q0 69 36 106.5t103 37.5h481q69 0 106.5 -37.5t37.5 -106.5v-340h-234v283h-297v-373h322v-145h-322v-103h322v-147h-322v-395h297v303h234v-361q0 -69 -37.5 -106t-106.5 -37h-481q-67 0 -103 37t-36 106v453h-105z" />
<glyph unicode="&#xa5;" horiz-adv-x="907" d="M27 1556v9h241l187 -680l186 680h240v-9l-181 -571h158v-186h-217l-45 -148h262v-188h-287v-463h-235v463h-285v188h260l-45 148h-215v186h156z" />
<glyph unicode="&#xa6;" horiz-adv-x="958" d="M92 117v1331q0 56 31.5 86.5t89.5 30.5h535q57 0 88.5 -30.5t31.5 -86.5v-1331q0 -56 -31.5 -86.5t-88.5 -30.5h-535q-58 0 -89.5 30.5t-31.5 86.5zM279 172h399v199h-399v-199zM279 512h399v201h-399v-201zM279 852h399v199h-399v-199zM279 1192h399v201h-399v-201z" />
<glyph unicode="&#xa7;" horiz-adv-x="913" d="M88 125v237h227v-190h285v195l-434 180q-44 17 -61 41t-17 71v177q0 55 16 81t58 44l100 47l-98 47q-42 18 -59 44.5t-17 80.5v260q0 60 33.5 92.5t93.5 32.5h483q61 0 94 -32.5t33 -92.5v-238h-225v191h-285v-195l433 -180q44 -17 60.5 -41.5t16.5 -71.5v-176 q0 -56 -15.5 -81.5t-57.5 -43.5l-101 -47l99 -47q43 -17 59 -43.5t16 -81.5v-260q0 -60 -33 -92.5t-94 -32.5h-483q-60 0 -93.5 32.5t-33.5 92.5zM311 694l146 -67l147 67v176l-147 68l-146 -68v-176z" />
<glyph unicode="&#xa8;" d="M156 1077v215h219v-215h-219zM461 1077v215h219v-215h-219z" />
<glyph unicode="&#xa9;" horiz-adv-x="1193" d="M92 90v1385q0 43 23 66.5t67 23.5h830q43 0 66.5 -23.5t23.5 -66.5v-1385q0 -43 -23.5 -66.5t-66.5 -23.5h-830q-44 0 -67 23.5t-23 66.5zM199 102h796v1360h-796v-1360zM365 438v692q0 45 25 71t69 26h272q44 0 69 -26t25 -71v-219h-161v168h-138v-590h138v179h161v-230 q0 -44 -25 -69t-69 -25h-272q-44 0 -69 25t-25 69z" />
<glyph unicode="&#xaa;" horiz-adv-x="706" d="M86 512v154h535v-154h-535zM86 858v291q0 98 104 98h246v178h-170v-108h-172v149q0 99 105 99h315q107 0 107 -99v-700h-187v27l-186 -25q-34 -6 -62 -6q-100 0 -100 96zM266 905l170 6v213h-170v-219z" />
<glyph unicode="&#xab;" horiz-adv-x="1036" d="M66 537v36l253 381h250v-8l-258 -391l258 -391v-8h-250zM453 537v36l254 381h249v-8l-260 -391l260 -391v-8h-249z" />
<glyph unicode="&#xac;" horiz-adv-x="958" d="M92 117v1331q0 56 31.5 86.5t89.5 30.5h535q57 0 88.5 -30.5t31.5 -86.5v-1331q0 -56 -31.5 -86.5t-88.5 -30.5h-535q-58 0 -89.5 30.5t-31.5 86.5zM279 172h399v199h-399v-199zM279 512h399v201h-399v-201zM279 852h399v199h-399v-199zM279 1192h399v201h-399v-201z" />
<glyph unicode="&#xad;" horiz-adv-x="630" d="M76 498v209h477v-209h-477z" />
<glyph unicode="&#xae;" horiz-adv-x="1193" d="M92 90v1385q0 43 23 66.5t67 23.5h830q43 0 66.5 -23.5t23.5 -66.5v-1385q0 -43 -23.5 -66.5t-66.5 -23.5h-830q-44 0 -67 23.5t-23 66.5zM199 102h796v1360h-796v-1360zM362 344v881h377q43 0 67.5 -25.5t24.5 -69.5v-319q0 -39 -19.5 -63t-51.5 -29l-41 -2l139 -363 v-10h-164l-141 381l12 115h107v250h-148v-746h-162z" />
<glyph unicode="&#xaf;" d="M156 1096v157h524v-157h-524z" />
<glyph unicode="&#xb0;" horiz-adv-x="657" d="M76 1022v422q0 63 29.5 92t91.5 29h264q62 0 91.5 -29t29.5 -92v-422q0 -123 -121 -123h-264q-121 0 -121 123zM229 1042h197v379h-197v-379z" />
<glyph unicode="&#xb1;" horiz-adv-x="1398" d="M27 815v195h104v430q0 125 127 125h268v-199h-168v-356h250v430q0 125 129 125h576v-1565h-228v1366h-249v-356h145v-195h-145v-815h-228v815h-250v-815h-227v815h-104z" />
<glyph unicode="&#xb2;" horiz-adv-x="958" d="M92 117v1331q0 56 31.5 86.5t89.5 30.5h535q57 0 88.5 -30.5t31.5 -86.5v-1331q0 -56 -31.5 -86.5t-88.5 -30.5h-535q-58 0 -89.5 30.5t-31.5 86.5zM279 172h399v199h-399v-199zM279 512h399v201h-399v-201zM279 852h399v199h-399v-199zM279 1192h399v201h-399v-201z" />
<glyph unicode="&#xb3;" horiz-adv-x="958" d="M92 117v1331q0 56 31.5 86.5t89.5 30.5h535q57 0 88.5 -30.5t31.5 -86.5v-1331q0 -56 -31.5 -86.5t-88.5 -30.5h-535q-58 0 -89.5 30.5t-31.5 86.5zM279 172h399v199h-399v-199zM279 512h399v201h-399v-201zM279 852h399v199h-399v-199zM279 1192h399v201h-399v-201z" />
<glyph unicode="&#xb4;" d="M145 1077v8l172 265h287v-9l-291 -264h-168z" />
<glyph unicode="&#xb6;" horiz-adv-x="1040" d="M78 702v721q0 69 36 105.5t105 36.5h727v-1565h-213v561h-119v-561h-213v561h-182q-69 0 -105 36.5t-36 104.5zM481 768h252v590h-252v-590z" />
<glyph unicode="&#xb7;" horiz-adv-x="399" d="M76 483v258h250v-258h-250z" />
<glyph unicode="&#xb8;" d="M195 -182h155v-84h131v84l-88 39q-33 13 -45 33.5t-12 60.5v69h151v-61l93 -47q36 -17 46.5 -36t10.5 -60v-107q0 -96 -96 -96h-250q-49 0 -72.5 23.5t-23.5 72.5v109z" />
<glyph unicode="&#xb9;" horiz-adv-x="958" d="M92 117v1331q0 56 31.5 86.5t89.5 30.5h535q57 0 88.5 -30.5t31.5 -86.5v-1331q0 -56 -31.5 -86.5t-88.5 -30.5h-535q-58 0 -89.5 30.5t-31.5 86.5zM279 172h399v199h-399v-199zM279 512h399v201h-399v-201zM279 852h399v199h-399v-199zM279 1192h399v201h-399v-201z" />
<glyph unicode="&#xba;" horiz-adv-x="714" d="M86 512v154h543v-154h-543zM86 866v600q0 51 26 75t81 24h331q105 0 105 -99v-600q0 -100 -105 -100h-331q-56 0 -81.5 24t-25.5 76zM270 915h172v500h-172v-500z" />
<glyph unicode="&#xbb;" horiz-adv-x="1036" d="M80 156v8l260 391l-260 391v8h250l254 -381v-36l-254 -381h-250zM467 156v8l260 391l-260 391v8h252l252 -381v-36l-252 -381h-252z" />
<glyph unicode="&#xbc;" horiz-adv-x="958" d="M92 117v1331q0 56 31.5 86.5t89.5 30.5h535q57 0 88.5 -30.5t31.5 -86.5v-1331q0 -56 -31.5 -86.5t-88.5 -30.5h-535q-58 0 -89.5 30.5t-31.5 86.5zM279 172h399v199h-399v-199zM279 512h399v201h-399v-201zM279 852h399v199h-399v-199zM279 1192h399v201h-399v-201z" />
<glyph unicode="&#xbd;" horiz-adv-x="958" d="M92 117v1331q0 56 31.5 86.5t89.5 30.5h535q57 0 88.5 -30.5t31.5 -86.5v-1331q0 -56 -31.5 -86.5t-88.5 -30.5h-535q-58 0 -89.5 30.5t-31.5 86.5zM279 172h399v199h-399v-199zM279 512h399v201h-399v-201zM279 852h399v199h-399v-199zM279 1192h399v201h-399v-201z" />
<glyph unicode="&#xbe;" horiz-adv-x="958" d="M92 117v1331q0 56 31.5 86.5t89.5 30.5h535q57 0 88.5 -30.5t31.5 -86.5v-1331q0 -56 -31.5 -86.5t-88.5 -30.5h-535q-58 0 -89.5 30.5t-31.5 86.5zM279 172h399v199h-399v-199zM279 512h399v201h-399v-201zM279 852h399v199h-399v-199zM279 1192h399v201h-399v-201z" />
<glyph unicode="&#xbf;" horiz-adv-x="868" d="M74 143v324q0 44 9 72t32 59l227 307v295h227v-266q0 -47 -8 -76t-31 -59l-227 -305v-299h266v284h228v-336q0 -69 -37.5 -106t-106.5 -37h-436q-68 0 -105.5 37t-37.5 106zM338 1325v240h235v-240h-235z" />
<glyph unicode="&#xc0;" horiz-adv-x="923" d="M37 0v4l303 1563h246l301 -1563v-4h-232l-47 297h-293l-47 -297h-231zM143 1901v8h285l174 -264v-9h-168zM346 498h229l-114 706z" />
<glyph unicode="&#xc1;" horiz-adv-x="923" d="M37 0v4l303 1563h246l301 -1563v-4h-232l-47 297h-293l-47 -297h-231zM317 1634v8l172 265h287v-9l-291 -264h-168zM346 498h229l-114 706z" />
<glyph unicode="&#xc2;" horiz-adv-x="923" d="M37 0v4l303 1563h246l301 -1563v-4h-232l-47 297h-293l-47 -297h-231zM176 1626v8l207 260h158l207 -260v-8h-150l-137 115l-137 -115h-148zM346 498h229l-114 706z" />
<glyph unicode="&#xc3;" horiz-adv-x="923" d="M37 0v4l303 1563h246l301 -1563v-4h-232l-47 297h-293l-47 -297h-231zM199 1638v158q0 45 24.5 69.5t69.5 24.5q37 0 90 -18l184 -72v88h160v-157q0 -45 -24.5 -70t-69.5 -25q-39 0 -88 19l-189 71v-88h-157zM346 498h229l-114 706z" />
<glyph unicode="&#xc4;" horiz-adv-x="923" d="M37 0v4l303 1563h246l301 -1563v-4h-232l-47 297h-293l-47 -297h-231zM201 1634v215h219v-215h-219zM346 498h229l-114 706zM506 1634v215h219v-215h-219z" />
<glyph unicode="&#xc5;" horiz-adv-x="923" d="M37 0v4l282 1460h-18q-68 15 -68 99v200q0 105 105 105h248q104 0 104 -105v-200q0 -84 -67 -99h-17l281 -1460v-4h-232l-47 297h-293l-47 -297h-231zM346 498h229l-114 706zM387 1585h150v154h-150v-154z" />
<glyph unicode="&#xc6;" horiz-adv-x="1275" d="M27 0v4l446 1561h731v-207h-399v-455h342v-205h-342v-491h405v-207h-632v297h-244l-78 -297h-229zM385 498h193v759z" />
<glyph unicode="&#xc7;" horiz-adv-x="954" d="M94 143v1278q0 69 36 106.5t103 37.5h488q69 0 106 -37.5t37 -106.5v-366h-233v309h-303v-1163h303v329h233v-387q0 -69 -37 -106t-106 -37h-170v-41l92 -47q34 -17 44.5 -36t10.5 -60v-107q0 -49 -23 -72.5t-73 -23.5h-248q-50 0 -73 23.5t-23 72.5v109h154v-84h131v84 l-88 39q-32 14 -45 34.5t-13 59.5v49h-164q-67 0 -103 37t-36 106z" />
<glyph unicode="&#xc8;" horiz-adv-x="808" d="M94 0v1565h643v-207h-409v-457h352v-203h-352v-491h415v-207h-649zM127 1898v9h285l174 -265v-8h-168z" />
<glyph unicode="&#xc9;" horiz-adv-x="808" d="M94 0v1565h643v-207h-409v-457h352v-203h-352v-491h415v-207h-649zM236 1634v8l172 265h286v-9l-291 -264h-167z" />
<glyph unicode="&#xca;" horiz-adv-x="808" d="M94 0v1565h643v-207h-409v-457h352v-203h-352v-491h415v-207h-649zM133 1634v8l207 261h158l207 -261v-8h-150l-137 115l-137 -115h-148z" />
<glyph unicode="&#xcb;" horiz-adv-x="808" d="M94 0v1565h643v-207h-409v-457h352v-203h-352v-491h415v-207h-649zM156 1634v215h219v-215h-219zM461 1634v215h219v-215h-219z" />
<glyph unicode="&#xcc;" horiz-adv-x="430" d="M-86 1898v9h285l174 -265v-8h-168zM98 0v1565h234v-1565h-234z" />
<glyph unicode="&#xcd;" horiz-adv-x="430" d="M55 1634v8l172 265h287v-9l-291 -264h-168zM98 0v1565h234v-1565h-234z" />
<glyph unicode="&#xce;" horiz-adv-x="430" d="M-70 1632v8l207 261h158l207 -261v-8h-150l-137 115l-137 -115h-148zM98 0v1565h234v-1565h-234z" />
<glyph unicode="&#xcf;" horiz-adv-x="430" d="M-47 1634v215h219v-215h-219zM98 0v1565h234v-1565h-234zM258 1634v215h219v-215h-219z" />
<glyph unicode="&#xd0;" horiz-adv-x="993" d="M39 692v211h84v662h475q138 0 221.5 -83.5t83.5 -215.5v-969q0 -131 -84 -214t-221 -83h-475v692h-84zM356 203h168q69 0 107.5 37t38.5 100v887q0 62 -39 98.5t-103 36.5h-172v-459h136v-211h-136v-489z" />
<glyph unicode="&#xd1;" horiz-adv-x="980" d="M94 0v1565h205l375 -965q-15 72 -15 113v852h228v-1565h-205l-375 985q15 -72 15 -113v-872h-228zM223 1634v158q0 45 24.5 69.5t69.5 24.5q39 0 91 -18l184 -72v88h160v-158q0 -45 -25 -69.5t-70 -24.5q-39 0 -88 19l-188 71v-88h-158z" />
<glyph unicode="&#xd2;" horiz-adv-x="976" d="M94 143v1278q0 69 36 106.5t103 37.5h508q68 0 105 -37.5t37 -106.5v-1278q0 -69 -37 -106t-105 -37h-508q-67 0 -103 37t-36 106zM178 1898v9h285l174 -265v-8h-168zM328 201h321v1163h-321v-1163z" />
<glyph unicode="&#xd3;" horiz-adv-x="976" d="M94 143v1278q0 69 36 106.5t103 37.5h508q68 0 105 -37.5t37 -106.5v-1278q0 -69 -37 -106t-105 -37h-508q-67 0 -103 37t-36 106zM328 201h321v1163h-321v-1163zM338 1634v8l172 265h287v-9l-291 -264h-168z" />
<glyph unicode="&#xd4;" horiz-adv-x="976" d="M94 143v1278q0 69 36 106.5t103 37.5h508q68 0 105 -37.5t37 -106.5v-1278q0 -69 -37 -106t-105 -37h-508q-67 0 -103 37t-36 106zM203 1634v8l207 261h157l207 -261v-8h-149l-138 115l-137 -115h-147zM328 201h321v1163h-321v-1163z" />
<glyph unicode="&#xd5;" horiz-adv-x="976" d="M94 143v1278q0 69 36 106.5t103 37.5h508q68 0 105 -37.5t37 -106.5v-1278q0 -69 -37 -106t-105 -37h-508q-67 0 -103 37t-36 106zM221 1638v158q0 45 24.5 69.5t69.5 24.5q38 0 91 -18l184 -72v88h160v-157q0 -45 -25 -70t-70 -25q-39 0 -88 19l-188 71v-88h-158z M328 201h321v1163h-321v-1163z" />
<glyph unicode="&#xd6;" horiz-adv-x="976" d="M94 143v1278q0 69 36 106.5t103 37.5h508q68 0 105 -37.5t37 -106.5v-1278q0 -69 -37 -106t-105 -37h-508q-67 0 -103 37t-36 106zM225 1634v215h219v-215h-219zM328 201h321v1163h-321v-1163zM530 1634v215h220v-215h-220z" />
<glyph unicode="&#xd7;" horiz-adv-x="958" d="M92 117v1331q0 56 31.5 86.5t89.5 30.5h535q57 0 88.5 -30.5t31.5 -86.5v-1331q0 -56 -31.5 -86.5t-88.5 -30.5h-535q-58 0 -89.5 30.5t-31.5 86.5zM279 172h399v199h-399v-199zM279 512h399v201h-399v-201zM279 852h399v199h-399v-199zM279 1192h399v201h-399v-201z" />
<glyph unicode="&#xd8;" horiz-adv-x="976" d="M94 143v1278q0 69 36 106.5t103 37.5h359l43 153h239v-12l-47 -164q56 -35 56 -121v-1278q0 -69 -37 -106t-105 -37h-348l-43 -154h-237v13l45 157q-64 36 -64 127zM328 201h321v1163h-321v-1163z" />
<glyph unicode="&#xd9;" horiz-adv-x="970" d="M94 143v1422h234v-1364h315v1364h234v-1422q0 -69 -37.5 -106t-106.5 -37h-497q-69 0 -105.5 37t-36.5 106zM178 1898v9h285l174 -265v-8h-168z" />
<glyph unicode="&#xda;" horiz-adv-x="970" d="M94 143v1422h234v-1364h315v1364h234v-1422q0 -69 -37.5 -106t-106.5 -37h-497q-69 0 -105.5 37t-36.5 106zM330 1634v8l172 265h286v-9l-290 -264h-168z" />
<glyph unicode="&#xdb;" horiz-adv-x="970" d="M94 143v1422h234v-1364h315v1364h234v-1422q0 -69 -37.5 -106t-106.5 -37h-497q-69 0 -105.5 37t-36.5 106zM199 1634v8l207 261h157l207 -261v-8h-149l-138 115l-137 -115h-147z" />
<glyph unicode="&#xdc;" horiz-adv-x="970" d="M94 143v1422h234v-1364h315v1364h234v-1422q0 -69 -37.5 -106t-106.5 -37h-497q-69 0 -105.5 37t-36.5 106zM223 1632v215h219v-215h-219zM528 1632v215h220v-215h-220z" />
<glyph unicode="&#xdd;" horiz-adv-x="907" d="M27 1556v9h241l187 -680l186 680h240v-9l-310 -981v-575h-235v575zM299 1626v8l172 264h287v-8l-291 -264h-168z" />
<glyph unicode="&#xde;" horiz-adv-x="925" d="M94 0v1565h234v-273h374q150 0 150 -149v-705q0 -149 -150 -149h-374v-289h-234zM328 487h290v605h-290v-605z" />
<glyph unicode="&#xdf;" horiz-adv-x="843" d="M82 0v1565h430q122 0 183 -63t61 -183v-279q0 -55 -12.5 -83t-53.5 -68l-78 -72l88 -76q38 -35 49 -63.5t11 -87.5v-453q0 -137 -137 -137h-220v180h132v461l-138 137v78l131 131v303q0 84 -84 84h-133v-1374h-229z" />
<glyph unicode="&#xe0;" horiz-adv-x="815" d="M78 119v364q0 64 31.5 94.5t97.5 30.5h309v232h-219v-144h-207v189q0 125 129 125h387q127 0 127 -125v-885h-219v35l-242 -31q-58 -8 -69 -8q-125 0 -125 123zM117 1341v9h284l174 -265v-8h-167zM297 174l219 8v271h-219v-279z" />
<glyph unicode="&#xe1;" horiz-adv-x="815" d="M78 119v364q0 64 31.5 94.5t97.5 30.5h309v232h-219v-144h-207v189q0 125 129 125h387q127 0 127 -125v-885h-219v35l-242 -31q-58 -8 -69 -8q-125 0 -125 123zM252 1077v8l172 265h287v-9l-291 -264h-168zM297 174l219 8v271h-219v-279z" />
<glyph unicode="&#xe2;" horiz-adv-x="815" d="M78 119v364q0 64 31.5 94.5t97.5 30.5h309v232h-219v-144h-207v189q0 125 129 125h387q127 0 127 -125v-885h-219v35l-242 -31q-58 -8 -69 -8q-125 0 -125 123zM129 1077v8l207 261h158l206 -261v-8h-149l-137 115l-138 -115h-147zM297 174l219 8v271h-219v-279z" />
<glyph unicode="&#xe3;" horiz-adv-x="815" d="M78 119v364q0 64 31.5 94.5t97.5 30.5h309v232h-219v-144h-207v189q0 125 129 125h387q127 0 127 -125v-885h-219v35l-242 -31q-58 -8 -69 -8q-125 0 -125 123zM152 1077v158q0 45 24.5 69.5t69.5 24.5q38 0 90 -18l184 -72v88h160v-158q0 -45 -24.5 -69.5t-69.5 -24.5 q-39 0 -88 19l-189 71v-88h-157zM297 174l219 8v271h-219v-279z" />
<glyph unicode="&#xe4;" horiz-adv-x="815" d="M78 119v364q0 64 31.5 94.5t97.5 30.5h309v232h-219v-144h-207v189q0 125 129 125h387q127 0 127 -125v-885h-219v35l-242 -31q-58 -8 -69 -8q-125 0 -125 123zM152 1077v215h219v-215h-219zM297 174l219 8v271h-219v-279zM457 1077v215h219v-215h-219z" />
<glyph unicode="&#xe5;" horiz-adv-x="815" d="M78 119v364q0 64 31.5 94.5t97.5 30.5h309v232h-219v-144h-207v189q0 125 129 125h387q127 0 127 -125v-885h-219v35l-242 -31q-58 -8 -69 -8q-125 0 -125 123zM188 1182v200q0 105 105 105h246q106 0 106 -105v-200q0 -105 -106 -105h-246q-105 0 -105 105zM297 174 l219 8v271h-219v-279zM342 1206h147v152h-147v-152z" />
<glyph unicode="&#xe6;" horiz-adv-x="1218" d="M78 119v362q0 64 31.5 94.5t97.5 30.5h299v234h-209v-146h-207v191q0 125 129 125h791q127 0 127 -125v-371l-64 -61h-360v-285h205v170h219v-213q0 -125 -127 -125h-375q-76 0 -105 39l-258 -35q-39 -8 -69 -8q-125 0 -125 123zM297 172l209 8v273h-209v-281zM713 604 h205v238h-205v-238z" />
<glyph unicode="&#xe7;" horiz-adv-x="817" d="M82 125v760q0 125 129 125h397q127 0 127 -125v-240h-223v174h-205v-629h205v193h223v-258q0 -125 -127 -125h-127v-41l92 -47q35 -17 46.5 -36.5t11.5 -59.5v-107q0 -96 -96 -96h-250q-97 0 -97 96v109h154v-84h133v84l-88 39q-32 14 -44.5 34t-12.5 60v49h-119 q-129 0 -129 125z" />
<glyph unicode="&#xe8;" horiz-adv-x="819" d="M82 125v760q0 125 129 125h395q129 0 129 -125v-371l-63 -63h-371v-283h215v168h219v-211q0 -125 -129 -125h-395q-129 0 -129 125zM113 1341v9h284l174 -265v-8h-168zM301 600h215v242h-215v-242z" />
<glyph unicode="&#xe9;" horiz-adv-x="819" d="M82 125v760q0 125 129 125h395q129 0 129 -125v-371l-63 -63h-371v-283h215v168h219v-211q0 -125 -129 -125h-395q-129 0 -129 125zM244 1077v8l172 265h286v-9l-290 -264h-168zM301 600h215v242h-215v-242z" />
<glyph unicode="&#xea;" horiz-adv-x="819" d="M82 125v760q0 125 129 125h395q129 0 129 -125v-371l-63 -63h-371v-283h215v168h219v-211q0 -125 -129 -125h-395q-129 0 -129 125zM125 1077v8l207 261h157l207 -261v-8h-149l-137 115l-138 -115h-147zM301 600h215v242h-215v-242z" />
<glyph unicode="&#xeb;" horiz-adv-x="819" d="M82 125v760q0 125 129 125h395q129 0 129 -125v-371l-63 -63h-371v-283h215v168h219v-211q0 -125 -129 -125h-395q-129 0 -129 125zM147 1077v215h220v-215h-220zM301 600h215v242h-215v-242zM453 1077v215h219v-215h-219z" />
<glyph unicode="&#xec;" horiz-adv-x="401" d="M-100 1343v9h284l174 -265v-8h-168zM88 0v1010h225v-1010h-225z" />
<glyph unicode="&#xed;" horiz-adv-x="401" d="M39 1077v8l172 265h287v-9l-291 -264h-168zM88 0v1010h225v-1010h-225z" />
<glyph unicode="&#xee;" horiz-adv-x="401" d="M-84 1075v8l207 260h158l206 -260v-8h-149l-137 115l-138 -115h-147zM88 0v1010h225v-1010h-225z" />
<glyph unicode="&#xef;" horiz-adv-x="401" d="M-61 1077v215h219v-215h-219zM88 0v1010h225v-1010h-225zM244 1077v215h219v-215h-219z" />
<glyph unicode="&#xf0;" horiz-adv-x="833" d="M82 125v760q0 64 31.5 94.5t97.5 30.5h317v80l-63 -21h-8v191l71 22v113h-213v-168h-225v213q0 125 127 125h410q127 0 127 -125v-84l88 28h8v-186l-96 -33v-1040q0 -125 -127 -125h-414q-131 0 -131 125zM311 180h217v649h-217v-649z" />
<glyph unicode="&#xf1;" horiz-adv-x="837" d="M82 0v1010h229v-37l242 33q54 8 78 8q125 0 125 -123v-891h-230v819l-215 -4v-815h-229zM156 1077v158q0 45 24.5 69.5t69.5 24.5q38 0 90 -18l184 -72v88h160v-158q0 -45 -24.5 -69.5t-69.5 -24.5q-39 0 -88 19l-189 71v-88h-157z" />
<glyph unicode="&#xf2;" horiz-adv-x="831" d="M82 125v760q0 125 129 125h410q127 0 127 -125v-760q0 -125 -127 -125h-410q-129 0 -129 125zM111 1343v9h284l174 -265v-8h-168zM307 190h217v629h-217v-629z" />
<glyph unicode="&#xf3;" horiz-adv-x="831" d="M82 125v760q0 125 129 125h410q127 0 127 -125v-760q0 -125 -127 -125h-410q-129 0 -129 125zM254 1077v8l172 265h287v-9l-291 -264h-168zM307 190h217v629h-217v-629z" />
<glyph unicode="&#xf4;" horiz-adv-x="831" d="M82 125v760q0 125 129 125h410q127 0 127 -125v-760q0 -125 -127 -125h-410q-129 0 -129 125zM121 1077v8l207 261h157l207 -261v-8h-149l-137 115l-138 -115h-147zM307 190h217v629h-217v-629z" />
<glyph unicode="&#xf5;" horiz-adv-x="831" d="M82 125v760q0 125 129 125h410q127 0 127 -125v-760q0 -125 -127 -125h-410q-129 0 -129 125zM152 1077v158q0 45 24.5 69.5t69.5 24.5q38 0 90 -18l184 -72v88h160v-158q0 -45 -24.5 -69.5t-69.5 -24.5q-39 0 -88 19l-189 71v-88h-157zM307 190h217v629h-217v-629z" />
<glyph unicode="&#xf6;" horiz-adv-x="831" d="M82 125v760q0 125 129 125h410q127 0 127 -125v-760q0 -125 -127 -125h-410q-129 0 -129 125zM154 1077v215h219v-215h-219zM307 190h217v629h-217v-629zM459 1077v215h219v-215h-219z" />
<glyph unicode="&#xf7;" horiz-adv-x="958" d="M92 117v1331q0 56 31.5 86.5t89.5 30.5h535q57 0 88.5 -30.5t31.5 -86.5v-1331q0 -56 -31.5 -86.5t-88.5 -30.5h-535q-58 0 -89.5 30.5t-31.5 86.5zM279 172h399v199h-399v-199zM279 512h399v201h-399v-201zM279 852h399v199h-399v-199zM279 1192h399v201h-399v-201z" />
<glyph unicode="&#xf8;" horiz-adv-x="831" d="M82 125v760q0 125 129 125h262l53 153h219v-12l-53 -156q56 -27 56 -110v-760q0 -125 -127 -125h-267l-53 -154h-217v13l53 155q-55 27 -55 111zM307 190h217v629h-217v-629z" />
<glyph unicode="&#xf9;" horiz-adv-x="837" d="M82 119v891h227v-820l217 5v815h228v-1010h-228v35l-241 -33q-54 -8 -78 -8q-125 0 -125 125zM115 1343v9h284l174 -265v-8h-167z" />
<glyph unicode="&#xfa;" horiz-adv-x="837" d="M82 119v891h227v-820l217 5v815h228v-1010h-228v35l-241 -33q-54 -8 -78 -8q-125 0 -125 125zM254 1077v8l172 265h287v-9l-291 -264h-168z" />
<glyph unicode="&#xfb;" horiz-adv-x="837" d="M82 119v891h227v-820l217 5v815h228v-1010h-228v35l-241 -33q-54 -8 -78 -8q-125 0 -125 125zM133 1077v8l207 261h158l207 -261v-8h-150l-137 115l-137 -115h-148z" />
<glyph unicode="&#xfc;" horiz-adv-x="837" d="M82 119v891h227v-820l217 5v815h228v-1010h-228v35l-241 -33q-54 -8 -78 -8q-125 0 -125 125zM156 1077v215h219v-215h-219zM461 1077v215h219v-215h-219z" />
<glyph unicode="&#xfd;" horiz-adv-x="796" d="M31 1010h235l133 -664l133 664h234l-350 -1379h-234l105 377zM250 1077v8l172 265h287v-9l-291 -264h-168z" />
<glyph unicode="&#xfe;" d="M82 -369v1934h229v-592l246 33q33 8 74 8q125 0 125 -123v-688q0 -93 -56 -148t-155 -55h-234v-369h-229zM311 190h142q39 0 56 18.5t17 57.5v553l-215 -4v-625z" />
<glyph unicode="&#xff;" horiz-adv-x="796" d="M31 1010h235l133 -664l133 664h234l-350 -1379h-234l105 377zM137 1077v215h219v-215h-219zM442 1077v215h220v-215h-220z" />
<glyph unicode="&#x152;" horiz-adv-x="1323" d="M94 143v1278q0 69 36.5 106.5t105.5 37.5h1015v-207h-399v-455h342v-205h-342v-491h405v-207h-1021q-69 0 -105.5 37t-36.5 106zM328 201h293v1163h-293v-1163z" />
<glyph unicode="&#x153;" horiz-adv-x="1234" d="M82 125v760q0 125 129 125h815q127 3 127 -125v-371l-63 -63h-363v-283h207v168h219v-211q0 -125 -127 -125h-815q-129 0 -129 125zM305 186h213v637h-213v-637zM727 600h207v242h-207v-242z" />
<glyph unicode="&#x178;" horiz-adv-x="907" d="M27 1556v9h241l187 -680l186 680h240v-9l-310 -981v-575h-235v575zM193 1632v215h219v-215h-219zM498 1632v215h219v-215h-219z" />
<glyph unicode="&#x2c6;" d="M133 1077v8l207 261h158l207 -261v-8h-150l-137 115l-137 -115h-148z" />
<glyph unicode="&#x2dc;" d="M154 1077v158q0 45 24.5 69.5t69.5 24.5q38 0 90 -18l184 -72v88h160v-158q0 -45 -24.5 -69.5t-69.5 -24.5q-39 0 -88 19l-189 71v-88h-157z" />
<glyph unicode="&#x2000;" horiz-adv-x="954" />
<glyph unicode="&#x2001;" horiz-adv-x="1909" />
<glyph unicode="&#x2002;" horiz-adv-x="954" />
<glyph unicode="&#x2003;" horiz-adv-x="1909" />
<glyph unicode="&#x2004;" horiz-adv-x="636" />
<glyph unicode="&#x2005;" horiz-adv-x="477" />
<glyph unicode="&#x2006;" horiz-adv-x="318" />
<glyph unicode="&#x2007;" horiz-adv-x="318" />
<glyph unicode="&#x2008;" horiz-adv-x="238" />
<glyph unicode="&#x2009;" horiz-adv-x="381" />
<glyph unicode="&#x200a;" horiz-adv-x="106" />
<glyph unicode="&#x2010;" horiz-adv-x="630" d="M76 498v209h477v-209h-477z" />
<glyph unicode="&#x2011;" horiz-adv-x="630" d="M76 498v209h477v-209h-477z" />
<glyph unicode="&#x2012;" horiz-adv-x="630" d="M76 498v209h477v-209h-477z" />
<glyph unicode="&#x2013;" horiz-adv-x="880" d="M76 494v213h729v-213h-729z" />
<glyph unicode="&#x2014;" horiz-adv-x="1335" d="M76 494v213h1181v-213h-1181z" />
<glyph unicode="&#x2018;" horiz-adv-x="401" d="M49 1075l141 490h148l-51 -490h-238z" />
<glyph unicode="&#x2019;" horiz-adv-x="401" d="M63 1075l52 490h235l-137 -490h-150z" />
<glyph unicode="&#x201a;" horiz-adv-x="401" d="M53 -215l51 489h238l-139 -489h-150z" />
<glyph unicode="&#x201c;" horiz-adv-x="735" d="M49 1075l141 490h148l-51 -490h-238zM383 1075l139 490h148l-49 -490h-238z" />
<glyph unicode="&#x201d;" horiz-adv-x="735" d="M63 1075l52 490h235l-137 -490h-150zM397 1075l52 490h235l-139 -490h-148z" />
<glyph unicode="&#x201e;" horiz-adv-x="735" d="M63 -215l52 489h235l-137 -489h-150zM397 -215l52 489h235l-139 -489h-148z" />
<glyph unicode="&#x2022;" horiz-adv-x="944" d="M94 543v477q0 145 148 145h460q146 0 146 -145v-477q0 -146 -146 -146h-460q-148 0 -148 146z" />
<glyph unicode="&#x2026;" horiz-adv-x="1132" d="M76 0v242h225v-242h-225zM453 0v242h225v-242h-225zM829 0v242h226v-242h-226z" />
<glyph unicode="&#x202f;" horiz-adv-x="381" />
<glyph unicode="&#x2039;" horiz-adv-x="651" d="M66 537v36l253 381h250v-8l-260 -391l260 -391v-8h-250z" />
<glyph unicode="&#x203a;" horiz-adv-x="651" d="M80 156v8l260 391l-260 391v8h250l256 -381v-36l-256 -381h-250z" />
<glyph unicode="&#x205f;" horiz-adv-x="477" />
<glyph unicode="&#x20ac;" horiz-adv-x="968" d="M10 596v147h105v103h-105v145h105v430q0 69 36 106.5t103 37.5h481q69 0 106.5 -37.5t37.5 -106.5v-340h-234v283h-297v-373h322v-145h-322v-103h322v-147h-322v-395h297v303h234v-361q0 -69 -37.5 -106t-106.5 -37h-481q-67 0 -103 37t-36 106v453h-105z" />
<glyph unicode="&#x2122;" horiz-adv-x="1228" d="M51 1430v135h455v-135h-154v-768h-145v768h-156zM582 662v903h153l133 -482l136 482h151v-903h-145v485l-99 -397h-88l-98 397v-485h-143z" />
<glyph unicode="&#x25fc;" horiz-adv-x="1013" d="M0 0v1014h1014v-1014h-1014z" />
<glyph unicode="&#xfb03;" horiz-adv-x="1398" d="M27 815v195h104v430q0 125 127 125h268v-199h-168v-356h250v430q0 125 129 125h449q127 0 127 -125v-285h-228v211h-249v-356h477v-1010h-228v815h-249v-815h-228v815h-250v-815h-227v815h-104z" />
<glyph unicode="&#xfb04;" horiz-adv-x="1398" d="M27 815v195h104v430q0 125 127 125h268v-199h-168v-356h250v430q0 125 129 125h576v-1565h-228v1366h-249v-356h145v-195h-145v-815h-228v815h-250v-815h-227v815h-104z" />
</font>
</defs>
</svg>
